<svg width="100" height="41" viewBox="0 0 100 41" fill="none" xmlns="http://www.w3.org/2000/svg">
<path d="M29.8872 9.0001C28.8562 8.9001 27.8522 9.1441 26.8442 9.2831C26.7572 9.1901 26.8342 9.1211 26.8702 9.0621C29.3182 5.0551 32.7002 2.3251 37.3862 1.3871C39.0362 1.05107 40.7308 0.992264 42.4002 1.2131C43.0722 1.3041 43.6802 1.0571 44.3172 0.963103C44.9262 0.873103 45.0462 0.963103 44.7402 1.4951C44.1402 2.5391 44.5022 3.5591 44.6712 4.5951C44.9672 6.39844 45.2768 8.2001 45.6002 10.0001C45.6592 10.3341 45.5912 10.5881 45.3502 10.8071C44.8902 11.2261 44.4952 11.7561 43.7242 11.5011C43.2242 11.3371 42.8402 11.1351 42.8242 10.5381C42.8169 10.4046 42.7675 10.2768 42.6832 10.1731C42.0062 9.3951 41.3412 8.6021 40.5212 7.9651C40.0362 7.5881 39.7572 7.6401 39.4102 8.1571C39.0172 8.7421 38.8012 9.4111 38.5482 10.0621C37.9482 11.5971 37.3582 13.1331 36.3812 14.4841C36.1872 14.7521 35.9962 14.8711 35.6442 14.8371C34.3069 14.6983 32.9611 14.6608 31.6182 14.7251C31.6462 14.9101 31.7672 14.9051 31.8852 14.9201C33.2062 15.0821 34.5252 15.2521 35.8462 15.4111C36.8872 15.5371 37.5462 16.6291 37.1222 17.5781C36.2842 19.408 35.3461 21.1903 34.3122 22.9171C34.1813 23.1499 33.989 23.3423 33.7562 23.4731C33.2042 23.7798 32.6552 24.0924 32.1092 24.4111C31.8912 24.5381 31.7482 24.5111 31.6382 24.2691C31.3843 23.7224 31.289 23.1153 31.3632 22.5171C31.4122 22.1261 32.0562 21.8171 32.5322 21.9221C33.1232 22.0551 33.3932 21.8341 33.3682 21.2221C33.3562 20.9341 33.4952 20.7091 33.6342 20.4851C34.1092 19.7231 34.5972 18.9691 35.0732 18.2071C35.1732 18.0441 35.3612 17.8681 35.2322 17.6691C35.1032 17.4701 34.8672 17.5301 34.6742 17.5471C33.7852 17.6251 32.9172 17.6911 32.0742 18.0981C30.6422 18.7881 29.0742 19.0691 27.5052 19.2861C25.4672 19.5671 23.3962 19.5411 21.3432 19.9561C21.4092 19.0261 21.4952 18.1301 21.3372 17.1371C21.0962 17.4291 21.0802 17.6771 21.0522 17.9141C20.7072 20.8851 19.0652 23.0361 16.7252 24.7381C15.3026 25.7615 13.6922 26.4945 11.9862 26.8951C10.7932 27.1861 9.94116 27.8431 9.35116 28.9221C8.68016 30.1491 8.15916 31.4531 7.46416 32.6621C6.73716 33.9281 5.62016 34.7381 4.14516 34.9681C3.39316 35.0851 3.27316 34.9321 3.49416 34.2021C3.58616 33.9021 3.70316 33.6021 3.80916 33.3081C4.04916 32.6301 4.35616 32.0581 5.24416 32.1681C5.57916 32.2101 5.76016 31.9681 5.87816 31.6491C6.55916 29.8091 7.26716 27.9801 7.94216 26.1381C7.9897 25.9806 8.07396 25.8366 8.18801 25.7181C8.30206 25.5995 8.44263 25.5097 8.59816 25.4561C9.39816 25.1561 10.1982 24.8771 10.9722 24.5441C12.3102 23.9731 12.6922 23.3441 12.5992 21.9081C12.5222 20.6971 12.3702 19.4871 12.6282 18.2791C13.1432 15.8581 14.7282 14.3001 16.7902 13.1361C18.6362 12.0961 20.6632 11.5621 22.6902 11.0361C24.9122 10.4654 27.1328 9.89043 29.3522 9.3111C29.5402 9.2621 29.7232 9.1971 29.9082 9.1401L29.8872 9.0001Z" fill="#03B1F0"/>
<path d="M50.2261 30.908C52.5641 30.908 54.3911 32.708 54.3741 34.985C54.3561 37.292 52.5061 39.085 50.1621 39.068C47.8451 39.051 46.0481 37.281 46.0461 35.012C46.0441 32.7 47.8771 30.9 50.2261 30.908ZM47.8331 34.943C47.8271 36.403 48.8261 37.485 50.1901 37.495C51.5841 37.505 52.6021 36.454 52.6021 35.004C52.6021 33.58 51.5581 32.482 50.2021 32.475C48.8201 32.468 47.8391 33.492 47.8331 34.943Z" fill="#06B4F1"/>
<path d="M34.574 32.222C35.104 31.535 35.694 31.089 36.493 30.949C38.188 30.649 39.642 31.704 39.729 33.422C39.808 34.981 39.766 36.547 39.754 38.11C39.754 38.632 39.396 38.928 38.879 38.924C38.362 38.92 38.009 38.613 37.988 38.057C37.964 37.393 37.981 36.727 37.98 36.057C37.98 35.475 37.991 34.892 37.972 34.311C37.936 33.169 37.333 32.52 36.327 32.519C35.293 32.519 34.579 33.219 34.554 34.334C34.527 35.547 34.554 36.762 34.541 37.976C34.536 38.576 34.223 38.904 33.679 38.917C33.135 38.93 32.773 38.617 32.77 38.082C32.756 36.0033 32.756 33.9243 32.77 31.845C32.7656 31.6253 32.8474 31.4126 32.9979 31.2524C33.1483 31.0923 33.3555 30.9974 33.575 30.988C33.8014 30.9708 34.0259 31.0397 34.2035 31.181C34.3812 31.3223 34.4989 31.5256 34.533 31.75C34.555 31.878 34.556 32 34.574 32.222Z" fill="#06B4F1"/>
<path d="M58.185 32.194C58.993 31.14 59.995 30.729 61.247 30.98C62.422 31.216 63.271 32.141 63.306 33.348C63.351 34.943 63.33 36.54 63.322 38.136C63.322 38.62 62.969 38.944 62.499 38.957C62.3865 38.9629 62.2739 38.9465 62.1677 38.9088C62.0615 38.8712 61.9638 38.8129 61.8802 38.7373C61.7966 38.6618 61.7287 38.5705 61.6804 38.4687C61.6322 38.3669 61.6045 38.2565 61.599 38.144C61.565 37.514 61.587 36.881 61.581 36.244C61.574 35.513 61.602 34.779 61.543 34.052C61.466 33.104 60.907 32.581 60.012 32.523C59.117 32.465 58.439 32.974 58.212 33.85C58.068 34.408 58.148 34.975 58.138 35.538C58.124 36.338 58.138 37.138 58.133 37.932C58.133 38.561 57.763 38.963 57.223 38.952C56.706 38.943 56.353 38.552 56.351 37.943C56.344 35.998 56.351 34.052 56.351 32.107C56.351 31.4 56.659 31.007 57.208 30.986C57.757 30.965 58.087 31.335 58.139 32.037C58.1499 32.0905 58.1652 32.143 58.185 32.194Z" fill="#05B3F1"/>
<path d="M28.551 37.8261C28.392 37.8521 28.345 37.9721 28.274 38.0561C27.435 39.0561 26.202 39.2091 25.038 38.8351C24 38.5011 23.382 37.4901 23.373 36.2351C23.363 34.8041 23.367 33.3721 23.373 31.9411C23.373 31.3411 23.696 30.9991 24.226 30.9931C24.775 30.9871 25.132 31.3461 25.139 31.9511C25.15 33.0161 25.139 34.0811 25.139 35.1511C25.139 35.3511 25.139 35.5511 25.153 35.7511C25.223 36.8141 25.829 37.4121 26.824 37.4071C27.819 37.4021 28.524 36.7431 28.557 35.7211C28.595 34.4901 28.575 33.2581 28.573 32.0211C28.573 31.5381 28.743 31.1651 29.228 31.0211C29.828 30.8421 30.35 31.2591 30.353 31.9211C30.361 33.9351 30.361 35.9491 30.353 37.9631C30.353 38.5461 30.018 38.9291 29.517 38.9521C29.016 38.9751 28.659 38.6291 28.576 38.0521C28.569 37.9821 28.561 37.9061 28.551 37.8261Z" fill="#06B4F1"/>
<path d="M0.471001 23.172C0.355854 22.6688 0.384968 22.1433 0.555001 21.656C1.409 18.982 3.382 17.622 5.997 17.014C6.945 16.794 7.908 16.775 8.873 16.799C10.098 16.829 11.298 16.74 12.419 16.183C12.525 16.13 12.652 16.062 12.744 16.154C12.857 16.267 12.717 16.363 12.66 16.454C12.3566 16.8911 12.1118 17.3661 11.932 17.867C11.837 18.146 11.596 18.222 11.382 18.333C9.214 19.455 6.9 20.155 4.53 20.708C3.703 20.902 2.893 21.141 2.141 21.548C1.43454 21.9102 0.852854 22.4759 0.471001 23.172Z" fill="#05B3F1"/>
<path d="M39.418 15.5839C39.07 15.6139 38.709 15.5949 38.378 15.6839C37.741 15.8579 37.312 15.5439 36.878 15.1719C36.753 15.0659 36.77 14.9949 36.838 14.8839C36.968 14.6709 37.097 14.4579 37.219 14.2409C37.808 13.1969 37.808 13.1939 39.01 13.3409C39.736 13.4289 40.461 13.5259 41.186 13.6199C41.964 13.7199 42.571 14.7019 42.256 15.4249C41.5145 17.1535 40.6308 18.8175 39.614 20.3999C39.163 21.0929 38.292 21.3139 37.584 21.6999C37.433 21.7829 37.352 21.6139 37.298 21.4949C37.0787 21.0249 36.9942 20.5032 37.054 19.9879C37.1 19.6249 37.634 19.3399 38.079 19.4179C38.669 19.5179 38.843 19.3789 38.85 18.7679C38.85 18.5189 38.972 18.3219 39.094 18.1259C39.517 17.4489 39.953 16.7809 40.372 16.1019C40.642 15.6659 40.584 15.5729 40.066 15.5639C39.95 15.5639 39.834 15.5689 39.717 15.5739C39.617 15.5739 39.517 15.5869 39.417 15.5939L39.418 15.5839Z" fill="#06B4F1"/>
<path d="M66.953 32.7529C67.706 31.7269 68.653 31.0529 69.965 31.0609C70.8921 31.0574 71.783 31.4209 72.443 32.0719C73.924 33.4939 74.043 36.1099 72.693 37.6669C72.193 38.2489 71.574 38.6759 70.821 38.8359C70.1045 39.0074 69.3534 38.9646 68.661 38.7129C67.942 38.4379 67.428 37.9059 66.837 37.3709C66.837 37.6629 66.837 37.9549 66.837 38.2469C66.837 38.5169 66.862 38.8329 66.47 38.8179C66.131 38.8049 66.125 38.5239 66.126 38.2609C66.126 37.3959 66.126 36.5309 66.126 35.6609C66.126 33.6969 66.126 31.7332 66.126 29.7699C66.126 29.6369 66.126 29.5039 66.131 29.3699C66.145 29.1589 66.26 29.0169 66.473 29.0149C66.717 29.0149 66.817 29.1639 66.818 29.4049C66.818 30.3199 66.829 31.2349 66.835 32.1499C66.835 32.3279 66.835 32.5059 66.835 32.6839L66.953 32.7529ZM72.847 34.9999C72.835 33.0999 71.586 31.7409 69.863 31.7519C68.14 31.7629 66.8 33.1999 66.806 35.0309C66.812 36.8619 68.181 38.2759 69.906 38.2739C71.647 38.2719 72.859 36.9249 72.847 34.9999Z" fill="#0AB8F2"/>
<path d="M81 37.559C79.737 39.069 78.026 39.159 76.752 38.689C75.701 38.3 75.183 37.519 75.204 36.489C75.224 35.505 75.794 34.752 76.825 34.389C78.064 33.946 79.325 34.07 80.565 34.344C80.94 34.426 81.017 34.358 81.006 33.992C80.967 32.729 80.175 31.905 78.87 31.81C78.0698 31.7521 77.2676 31.8929 76.535 32.22C76.299 32.32 76.035 32.453 75.905 32.12C75.775 31.787 76.052 31.692 76.288 31.595C77.288 31.183 78.327 31.007 79.41 31.201C80.764 31.444 81.651 32.401 81.687 33.773C81.728 35.302 81.7 36.834 81.704 38.364C81.704 38.603 81.654 38.819 81.376 38.832C81.067 38.847 80.996 38.626 81 38.363C81 38.127 81 37.9 81 37.559ZM79 34.766C78.118 34.749 77.52 34.766 76.963 35.032C76.363 35.316 75.992 35.77 75.969 36.46C75.946 37.167 76.269 37.682 76.889 37.985C77.933 38.494 78.96 38.363 79.934 37.794C80.848 37.261 81.092 36.403 81.026 35.401C81.009 35.149 80.926 35.054 80.692 35.001C80.033 34.869 79.378 34.767 78.992 34.766H79Z" fill="#0AB8F2"/>
<path d="M96.0699 35.1169C95.4859 35.6889 94.9319 36.2389 94.3699 36.7789C94.2199 36.9229 94.1979 37.0879 94.2009 37.2789C94.2009 37.6619 94.2009 38.0449 94.2009 38.4269C94.2009 38.6649 94.1009 38.8119 93.8469 38.8069C93.5929 38.8019 93.4959 38.6529 93.4929 38.4189C93.4929 38.3519 93.4929 38.2859 93.4929 38.2189C93.4929 35.3729 93.4929 32.5266 93.4929 29.6799C93.4872 29.5635 93.4906 29.4468 93.5029 29.3309C93.5081 29.246 93.546 29.1665 93.6087 29.109C93.6714 29.0516 93.7539 29.0207 93.8389 29.0229C93.8852 29.0189 93.9317 29.0251 93.9753 29.0411C94.0188 29.057 94.0584 29.0823 94.0911 29.1152C94.1238 29.1481 94.1489 29.1878 94.1646 29.2315C94.1803 29.2751 94.1862 29.3217 94.1819 29.3679C94.1889 29.6509 94.1999 29.9329 94.1999 30.2159C94.1999 31.9639 94.1999 33.7119 94.1999 35.4599V35.9519C94.4379 35.9249 94.5139 35.7599 94.6219 35.6519C95.9099 34.3272 97.1946 32.9996 98.4759 31.6689C98.5689 31.5689 98.6639 31.4799 98.7549 31.3829C98.9209 31.2039 99.1219 31.1099 99.3199 31.2889C99.5349 31.4839 99.4069 31.6779 99.2419 31.8459C98.7279 32.3679 98.2119 32.8879 97.7009 33.4119C97.3289 33.7929 96.7089 34.1519 96.6639 34.5699C96.6139 35.0329 97.2499 35.4349 97.5859 35.8639C98.1719 36.6099 98.7749 37.3419 99.3749 38.0769C99.5409 38.2769 99.7179 38.5269 99.4879 38.7299C99.2359 38.9529 99.0079 38.7589 98.8229 38.5299C97.9089 37.3829 96.9859 36.2479 96.0699 35.1169Z" fill="#0AB8F2"/>
<path d="M84.9749 32.42C85.7969 31.389 86.8219 30.95 88.1049 31.084C89.5639 31.235 90.6199 32.264 90.6779 33.731C90.7389 35.276 90.7009 36.825 90.7069 38.372C90.7069 38.614 90.6519 38.81 90.3559 38.805C90.0339 38.799 89.9939 38.578 89.9939 38.323C89.9939 37.0417 89.9939 35.7603 89.9939 34.479C90.0008 34.2297 89.9881 33.9803 89.9559 33.733C89.7419 32.412 88.8049 31.655 87.4759 31.715C86.1169 31.776 85.0389 32.807 84.9919 34.17C84.9489 35.433 84.9789 36.698 84.9769 37.963C84.9769 38.096 84.9769 38.229 84.9769 38.363C84.9769 38.601 84.9199 38.799 84.6269 38.806C84.3339 38.813 84.2549 38.636 84.2529 38.387C84.2529 38.32 84.2529 38.254 84.2529 38.187V31.847C84.2529 31.764 84.2529 31.681 84.2529 31.598C84.2659 31.378 84.3389 31.198 84.5969 31.198C84.8779 31.198 84.9639 31.387 84.9709 31.627C84.9809 31.889 84.9749 32.154 84.9749 32.42Z" fill="#0AB8F2"/>
<path d="M43.962 34.972C43.962 35.972 43.962 36.966 43.962 37.963C43.962 38.584 43.676 38.901 43.13 38.923C42.561 38.945 42.195 38.623 42.19 38.005C42.1753 35.9783 42.1753 33.951 42.19 31.923C42.195 31.344 42.576 30.987 43.084 30.991C43.617 30.991 43.956 31.369 43.96 31.981C43.967 32.978 43.962 33.975 43.962 34.972Z" fill="#06B4F1"/>
<path d="M10.222 31.7161C10.022 31.7431 9.90703 31.5741 10.022 31.2281C10.132 30.8981 10.259 30.5731 10.368 30.2421C10.543 29.7071 10.828 29.3421 11.468 29.3741C11.803 29.3911 12.025 29.1971 12.088 28.8501C12.278 27.7971 12.859 27.1151 13.92 26.8371C14.25 26.7511 14.546 26.5371 14.859 26.3821C14.945 26.3391 15.034 26.2551 15.131 26.3321C15.228 26.4091 15.16 26.5131 15.117 26.5971C14.517 27.7831 14.017 29.0371 13.217 30.0911C12.535 30.9811 11.6 31.6261 10.222 31.7161Z" fill="#06B4F1"/>
</svg>
